<svg width="20" height="20" viewBox="0 0 20 20" fill="none" xmlns="http://www.w3.org/2000/svg">
<g clip-path="url(#clip0_1_32438)">
<path d="M17.85 2.17188H16.8813V1.36875C16.8813 0.6125 16.2687 0 15.5125 0C14.7594 0 14.1437 0.6125 14.1437 1.36875V2.17188H5.85625V1.36875C5.85625 0.6125 5.24062 0 4.4875 0C3.73125 0 3.11875 0.6125 3.11875 1.36875V2.17188H2.15C1.10312 2.17188 0.25 3.025 0.25 4.075V18.0969C0.25 19.1469 1.10312 20 2.15 20H17.85C18.8969 20 19.75 19.1469 19.75 18.0969V4.075C19.75 3.025 18.8969 2.17188 17.85 2.17188ZM15.0406 1.36875C15.0406 1.10625 15.2531 0.89375 15.5125 0.89375C15.775 0.89375 15.9875 1.10625 15.9875 1.36875V3.875C15.9875 4.00056 15.9376 4.12098 15.8488 4.20977C15.76 4.29856 15.6396 4.34844 15.5141 4.34844C15.3885 4.34844 15.2681 4.29856 15.1793 4.20977C15.0905 4.12098 15.0406 4.00056 15.0406 3.875V1.36875ZM4.0125 1.36875C4.0125 1.10625 4.225 0.89375 4.4875 0.89375C4.74687 0.89375 4.95937 1.10625 4.95937 1.36875V3.875C4.95937 4.00056 4.90949 4.12098 4.82071 4.20977C4.73192 4.29856 4.6115 4.34844 4.48594 4.34844C4.36037 4.34844 4.23995 4.29856 4.15117 4.20977C4.06238 4.12098 4.0125 4.00056 4.0125 3.875V1.36875ZM18.8563 18.0969C18.8563 18.6531 18.4031 19.1031 17.85 19.1031H2.15C1.59687 19.1031 1.14375 18.6531 1.14375 18.0969V7.25937H18.8563V18.0969ZM18.8563 6.3625H1.14375V4.075C1.14375 3.51875 1.59687 3.06875 2.15 3.06875H3.11875V3.875C3.11875 4.62812 3.73125 5.24375 4.4875 5.24375C5.24062 5.24375 5.85625 4.62812 5.85625 3.875V3.06875H14.1437V3.875C14.1437 4.62812 14.7594 5.24375 15.5125 5.24375C16.2687 5.24375 16.8813 4.62812 16.8813 3.875V3.06875H17.85C18.4031 3.06875 18.8563 3.51875 18.8563 4.075V6.3625Z" fill="url(#paint0_linear_1_32438)"/>
<path d="M4.95957 1.36874V3.87499C4.95957 4.00055 4.90969 4.12097 4.8209 4.20976C4.73212 4.29855 4.6117 4.34843 4.48613 4.34843C4.36057 4.34843 4.24015 4.29855 4.15136 4.20976C4.06258 4.12097 4.0127 4.00055 4.0127 3.87499V1.36874C4.0127 1.10624 4.2252 0.893738 4.4877 0.893738C4.74707 0.893738 4.95957 1.10624 4.95957 1.36874ZM15.9877 1.36874V3.87499C15.9877 4.00055 15.9378 4.12097 15.849 4.20976C15.7602 4.29855 15.6398 4.34843 15.5143 4.34843C15.3887 4.34843 15.2683 4.29855 15.1795 4.20976C15.0907 4.12097 15.0408 4.00055 15.0408 3.87499V1.36874C15.0408 1.10624 15.2533 0.893738 15.5127 0.893738C15.7752 0.893738 15.9877 1.10624 15.9877 1.36874Z" fill="#DCBE81"/>
<path d="M18.8561 4.07501V6.36251H1.14355V4.07501C1.14355 3.51876 1.59668 3.06876 2.1498 3.06876H3.11855V3.87501C3.11855 4.62813 3.73105 5.24376 4.4873 5.24376C5.24043 5.24376 5.85605 4.62813 5.85605 3.87501V3.06876H14.1436V3.87501C14.1436 4.62813 14.7592 5.24376 15.5123 5.24376C16.2686 5.24376 16.8811 4.62813 16.8811 3.87501V3.06876H17.8498C18.4029 3.06876 18.8561 3.51876 18.8561 4.07501Z" fill="#7A6226"/>
<path d="M1.14355 7.25937V18.0969C1.14355 18.6531 1.59668 19.1031 2.1498 19.1031H17.8498C18.4029 19.1031 18.8561 18.6531 18.8561 18.0969V7.25937H1.14355ZM5.19043 18.0469C5.19043 18.2937 4.99043 18.4937 4.74355 18.4937H2.67793C2.43105 18.4937 2.23105 18.2937 2.23105 18.0469V15.9812C2.23105 15.7344 2.43105 15.5344 2.67793 15.5344H4.74355C4.99043 15.5344 5.19043 15.7344 5.19043 15.9812V18.0469ZM5.19043 14.2125C5.19043 14.4594 4.99043 14.6625 4.74355 14.6625H2.67793C2.43105 14.6625 2.23105 14.4594 2.23105 14.2125V12.15C2.23105 11.9031 2.43105 11.7031 2.67793 11.7031H4.74355C4.99043 11.7031 5.19043 11.9031 5.19043 12.15V14.2125ZM9.38418 18.0469C9.38418 18.2937 9.18106 18.4937 8.93418 18.4937H6.87168C6.6248 18.4937 6.4248 18.2937 6.4248 18.0469V15.9812C6.4248 15.7344 6.6248 15.5344 6.87168 15.5344H8.93418C9.18106 15.5344 9.38418 15.7344 9.38418 15.9812V18.0469ZM9.38418 14.2125C9.38418 14.4594 9.18106 14.6625 8.93418 14.6625H6.87168C6.6248 14.6625 6.4248 14.4594 6.4248 14.2125V12.15C6.4248 11.9031 6.6248 11.7031 6.87168 11.7031H8.93418C9.18106 11.7031 9.38418 11.9031 9.38418 12.15V14.2125ZM13.5748 18.0469C13.5748 18.2937 13.3748 18.4937 13.1279 18.4937H11.0654C10.8186 18.4937 10.6154 18.2937 10.6154 18.0469V15.9812C10.6154 15.7344 10.8186 15.5344 11.0654 15.5344H13.1279C13.3748 15.5344 13.5748 15.7344 13.5748 15.9812V18.0469ZM13.5748 14.2125C13.5748 14.4594 13.3748 14.6625 13.1279 14.6625H11.0654C10.8186 14.6625 10.6154 14.4594 10.6154 14.2125V12.15C10.6154 11.9031 10.8186 11.7031 11.0654 11.7031H13.1279C13.3748 11.7031 13.5748 11.9031 13.5748 12.15V14.2125ZM13.5748 10.3812C13.5748 10.6281 13.3748 10.8281 13.1279 10.8281H11.0654C10.8186 10.8281 10.6154 10.6281 10.6154 10.3812V8.31562C10.6154 8.06874 10.8186 7.86874 11.0654 7.86874H13.1279C13.3748 7.86874 13.5748 8.06874 13.5748 8.31562V10.3812ZM17.7686 14.2125C17.7686 14.4594 17.5686 14.6625 17.3217 14.6625H15.2561C15.0092 14.6625 14.8092 14.4594 14.8092 14.2125V12.15C14.8092 11.9031 15.0092 11.7031 15.2561 11.7031H17.3217C17.5686 11.7031 17.7686 11.9031 17.7686 12.15V14.2125ZM17.7686 10.3812C17.7686 10.6281 17.5686 10.8281 17.3217 10.8281H15.2561C15.0092 10.8281 14.8092 10.6281 14.8092 10.3812V8.31562C14.8092 8.06874 15.0092 7.86874 15.2561 7.86874H17.3217C17.5686 7.86874 17.7686 8.06874 17.7686 8.31562V10.3812Z" fill="#7A6226"/>
<path d="M13.1277 7.86874H11.0652C10.8184 7.86874 10.6152 8.06874 10.6152 8.31562V10.3812C10.6152 10.6281 10.8184 10.8281 11.0652 10.8281H13.1277C13.3746 10.8281 13.5746 10.6281 13.5746 10.3812V8.31562C13.5746 8.06874 13.3746 7.86874 13.1277 7.86874ZM12.6809 9.93437H11.5121V8.76562H12.6809V9.93437Z" fill="#DCBE81"/>
<path d="M11.5127 8.76562H12.6814V9.93438H11.5127V8.76562Z" fill="#DCBE81"/>
<path d="M17.3221 7.86874H15.2564C15.0096 7.86874 14.8096 8.06874 14.8096 8.31562V10.3812C14.8096 10.6281 15.0096 10.8281 15.2564 10.8281H17.3221C17.5689 10.8281 17.7689 10.6281 17.7689 10.3812V8.31562C17.7689 8.06874 17.5689 7.86874 17.3221 7.86874ZM16.8721 9.93437H15.7064V8.76562H16.8721V9.93437Z" fill="#DCBE81"/>
<path d="M15.7061 8.76562H16.8717V9.93438H15.7061V8.76562Z" fill="#DCBE81"/>
<path d="M4.74395 11.7031H2.67832C2.43145 11.7031 2.23145 11.9031 2.23145 12.15V14.2125C2.23145 14.4594 2.43145 14.6625 2.67832 14.6625H4.74395C4.99082 14.6625 5.19082 14.4594 5.19082 14.2125V12.15C5.19082 11.9031 4.99082 11.7031 4.74395 11.7031ZM4.29395 13.7656H3.1252V12.5969H4.29395V13.7656Z" fill="#7A6226"/>
<path d="M3.125 12.5969H4.29375V13.7656H3.125V12.5969Z" fill="#7A6226"/>
<path d="M8.93418 11.7031H6.87168C6.6248 11.7031 6.4248 11.9031 6.4248 12.15V14.2125C6.4248 14.4594 6.6248 14.6625 6.87168 14.6625H8.93418C9.18105 14.6625 9.38418 14.4594 9.38418 14.2125V12.15C9.38418 11.9031 9.18105 11.7031 8.93418 11.7031ZM8.4873 13.7656H7.31855V12.5969H8.4873V13.7656Z" fill="#DCBE81"/>
<path d="M7.31836 12.5969H8.48711V13.7656H7.31836V12.5969Z" fill="#DCBE81"/>
<path d="M13.1277 11.7031H11.0652C10.8184 11.7031 10.6152 11.9031 10.6152 12.15V14.2125C10.6152 14.4594 10.8184 14.6625 11.0652 14.6625H13.1277C13.3746 14.6625 13.5746 14.4594 13.5746 14.2125V12.15C13.5746 11.9031 13.3746 11.7031 13.1277 11.7031ZM12.6809 13.7656H11.5121V12.5969H12.6809V13.7656Z" fill="#DCBE81"/>
<path d="M11.5127 12.5969H12.6814V13.7656H11.5127V12.5969Z" fill="#DCBE81"/>
<path d="M17.3221 11.7031H15.2564C15.0096 11.7031 14.8096 11.9031 14.8096 12.15V14.2125C14.8096 14.4594 15.0096 14.6625 15.2564 14.6625H17.3221C17.5689 14.6625 17.7689 14.4594 17.7689 14.2125V12.15C17.7689 11.9031 17.5689 11.7031 17.3221 11.7031ZM16.8721 13.7656H15.7064V12.5969H16.8721V13.7656Z" fill="#7A6226"/>
<path d="M15.7061 12.5969H16.8717V13.7656H15.7061V12.5969Z" fill="#7A6226"/>
<path d="M4.74395 15.5344H2.67832C2.43145 15.5344 2.23145 15.7344 2.23145 15.9812V18.0469C2.23145 18.2937 2.43145 18.4937 2.67832 18.4937H4.74395C4.99082 18.4937 5.19082 18.2937 5.19082 18.0469V15.9812C5.19082 15.7344 4.99082 15.5344 4.74395 15.5344ZM4.29395 17.5969H3.1252V16.4312H4.29395V17.5969Z" fill="#7A6226"/>
<path d="M3.125 16.4312H4.29375V17.5969H3.125V16.4312Z" fill="#7A6226"/>
<path d="M8.93418 15.5344H6.87168C6.6248 15.5344 6.4248 15.7344 6.4248 15.9812V18.0469C6.4248 18.2937 6.6248 18.4937 6.87168 18.4937H8.93418C9.18105 18.4937 9.38418 18.2937 9.38418 18.0469V15.9812C9.38418 15.7344 9.18105 15.5344 8.93418 15.5344ZM8.4873 17.5969H7.31855V16.4312H8.4873V17.5969Z" fill="#DCBE81"/>
<path d="M7.31836 16.4312H8.48711V17.5969H7.31836V16.4312Z" fill="#DCBE81"/>
<path d="M13.1277 15.5344H11.0652C10.8184 15.5344 10.6152 15.7344 10.6152 15.9812V18.0469C10.6152 18.2937 10.8184 18.4937 11.0652 18.4937H13.1277C13.3746 18.4937 13.5746 18.2937 13.5746 18.0469V15.9812C13.5746 15.7344 13.3746 15.5344 13.1277 15.5344ZM12.6809 17.5969H11.5121V16.4312H12.6809V17.5969Z" fill="#7A6226"/>
<path d="M11.5127 16.4312H12.6814V17.5969H11.5127V16.4312Z" fill="#7A6226"/>
</g>
<defs>
<linearGradient id="paint0_linear_1_32438" x1="10" y1="0" x2="10" y2="20" gradientUnits="userSpaceOnUse">
<stop stop-color="#FFF7D8"/>
<stop offset="1" stop-color="#DCBE81"/>
</linearGradient>
<clipPath id="clip0_1_32438">
<rect width="20" height="20" fill="white"/>
</clipPath>
</defs>
</svg>
