<svg width="66" height="96" viewBox="0 0 66 96" fill="none" xmlns="http://www.w3.org/2000/svg">
<g filter="url(#filter0_d_109_435)">
<path d="M67 2V87L56.7536 80.0686C52.2618 77.03 47.4862 74.4335 42.4938 72.3156L33.5 68.5C17.9545 59.9152 16.6732 38.055 31.1092 27.7128L33.5 26L43.2913 20.3626C47.7543 17.793 51.9716 14.8184 55.8898 11.4764L67 2Z" fill="#050706"/>
<path d="M67 2V87L56.7536 80.0686C52.2618 77.03 47.4862 74.4335 42.4938 72.3156L33.5 68.5C17.9545 59.9152 16.6732 38.055 31.1092 27.7128L33.5 26L43.2913 20.3626C47.7543 17.793 51.9716 14.8184 55.8898 11.4764L67 2Z" stroke="black"/>
</g>
<path d="M37 41L47 41" stroke="white" stroke-width="2" stroke-linecap="round"/>
<path d="M32 48.0909L47 48.0909" stroke="white" stroke-width="2" stroke-linecap="round"/>
<path d="M41 54L47 54" stroke="white" stroke-width="2" stroke-linecap="round"/>
<defs>
<filter id="filter0_d_109_435" x="16.5194" y="0.916359" width="54.9806" height="95.0255" filterUnits="userSpaceOnUse" color-interpolation-filters="sRGB">
<feFlood flood-opacity="0" result="BackgroundImageFix"/>
<feColorMatrix in="SourceAlpha" type="matrix" values="0 0 0 0 0 0 0 0 0 0 0 0 0 0 0 0 0 0 127 0" result="hardAlpha"/>
<feOffset dy="4"/>
<feGaussianBlur stdDeviation="2"/>
<feComposite in2="hardAlpha" operator="out"/>
<feColorMatrix type="matrix" values="0 0 0 0 0 0 0 0 0 0 0 0 0 0 0 0 0 0 0.25 0"/>
<feBlend mode="normal" in2="BackgroundImageFix" result="effect1_dropShadow_109_435"/>
<feBlend mode="normal" in="SourceGraphic" in2="effect1_dropShadow_109_435" result="shape"/>
</filter>
</defs>
</svg>
