<svg width="24" height="24" viewBox="0 0 24 24" fill="none" xmlns="http://www.w3.org/2000/svg">
<g clip-path="url(#clip0_1_32239)">
<path d="M11.0004 21C10.8688 21.0008 10.7383 20.9756 10.6165 20.9258C10.4946 20.876 10.3838 20.8027 10.2904 20.71L2.52036 12.93C1.54572 11.9452 0.999023 10.6156 0.999023 9.23002C0.999023 7.84445 1.54572 6.51484 2.52036 5.53002C3.50262 4.55053 4.83319 4.00049 6.22036 4.00049C7.60753 4.00049 8.9381 4.55053 9.92036 5.53002L11.0004 6.61002L12.0804 5.53002C13.0626 4.55053 14.3932 4.00049 15.7804 4.00049C17.1675 4.00049 18.4981 4.55053 19.4804 5.53002C20.455 6.51484 21.0017 7.84445 21.0017 9.23002C21.0017 10.6156 20.455 11.9452 19.4804 12.93L11.7104 20.71C11.6169 20.8027 11.5061 20.876 11.3843 20.9258C11.2624 20.9756 11.132 21.0008 11.0004 21ZM6.22036 6.00002C5.79704 5.9981 5.37754 6.0802 4.98617 6.24155C4.5948 6.40291 4.23933 6.64031 3.94036 6.94002C3.33642 7.54714 2.9974 8.36866 2.9974 9.22502C2.9974 10.0814 3.33642 10.9029 3.94036 11.51L11.0004 18.58L18.0604 11.51C18.6643 10.9029 19.0033 10.0814 19.0033 9.22502C19.0033 8.36866 18.6643 7.54714 18.0604 6.94002C17.444 6.35773 16.6283 6.03331 15.7804 6.03331C14.9325 6.03331 14.1167 6.35773 13.5004 6.94002L11.7104 8.74002C11.6174 8.83374 11.5068 8.90814 11.3849 8.95891C11.2631 9.00968 11.1324 9.03581 11.0004 9.03581C10.8683 9.03581 10.7376 9.00968 10.6158 8.95891C10.4939 8.90814 10.3833 8.83374 10.2904 8.74002L8.50036 6.94002C8.20139 6.64031 7.84592 6.40291 7.45455 6.24155C7.06318 6.0802 6.64368 5.9981 6.22036 6.00002Z" fill="black"/>
</g>
<defs>
<clipPath id="clip0_1_32239">
<rect width="24" height="24" fill="white"/>
</clipPath>
</defs>
</svg>
