<svg width="22" height="22" viewBox="0 0 22 22" fill="none" xmlns="http://www.w3.org/2000/svg">
<g clip-path="url(#clip0_1_32416)">
<path d="M19.6453 9.31563C16.7922 6.4625 12.1688 6.4625 9.31563 9.31563C6.4625 12.1688 6.4625 16.7922 9.31563 19.6453C12.1688 22.4984 16.7922 22.4984 19.6453 19.6453C22.4984 16.7922 22.4984 12.1688 19.6453 9.31563ZM14.4805 16.3023L12.6586 14.4805L14.4805 12.6586L16.3023 14.4805L14.4805 16.3023Z" fill="#DBBD80"/>
<path d="M19.0397 9.92147C16.5217 7.4035 12.4397 7.4035 9.92599 9.92147C7.41232 12.4394 7.40802 16.5215 9.92599 19.0351C12.444 21.5488 16.526 21.5531 19.0397 19.0351C21.5533 16.5172 21.5533 12.4394 19.0397 9.92147ZM14.4807 16.3023L12.6588 14.4805L14.4807 12.6586L16.3026 14.4805L14.4807 16.3023Z" fill="#7A6226"/>
<path d="M17.5184 10.2266L18.7337 11.4419L17.5184 12.6573L16.3031 11.4419L17.5184 10.2266ZM11.4431 16.3033L12.6584 17.5187L11.4431 18.734L10.2277 17.5186L11.4431 16.3033ZM16.3029 17.5188L17.5182 16.3035L18.7336 17.5188L17.5182 18.7342L16.3029 17.5188Z" fill="url(#paint0_linear_1_32416)"/>
<path d="M14.4805 11.4426L11.4426 14.4805L14.4805 17.5183L17.5183 14.4805L14.4805 11.4426ZM12.6586 14.4805L14.4805 12.6586L16.3023 14.4805L14.4805 16.3023L12.6586 14.4805Z" fill="#DBBD80"/>
<path d="M9.31562 9.31563C7.58398 11.0473 6.90507 13.432 7.2746 15.6793C7.35624 15.6836 7.43788 15.6836 7.51952 15.6836C12.0269 15.6836 15.6836 12.027 15.6836 7.51954C15.6836 7.4379 15.6836 7.35626 15.6793 7.27462C13.432 6.90079 11.0473 7.58399 9.31562 9.31563Z" fill="#7A6226"/>
<path d="M9.92131 9.9215C8.36155 11.4813 7.76858 13.6426 8.14241 15.6578C12.1557 15.3527 15.3569 12.1516 15.6576 8.14259C13.6424 7.76876 11.4811 8.36173 9.92131 9.9215Z" fill="url(#paint1_linear_1_32416)"/>
<path d="M14.6094 11.5715L14.4805 11.4426L11.4426 14.4805L11.5715 14.6094C12.8348 13.8875 13.8875 12.8348 14.6094 11.5715Z" fill="#7A6226"/>
<path d="M7.51953 0.214844C3.48477 0.214844 0.214844 3.48477 0.214844 7.51953C0.214844 11.5543 3.48477 14.8242 7.51953 14.8242C11.5543 14.8242 14.8242 11.5543 14.8242 7.51953C14.8242 3.48477 11.5543 0.214844 7.51953 0.214844ZM8.80859 8.80859H6.23047V6.23047H8.80859V8.80859Z" fill="#DBBD80"/>
<path d="M7.51953 1.07422C3.96172 1.07422 1.07422 3.96172 1.07422 7.51953C1.07422 11.0773 3.96172 13.9648 7.51953 13.9648C11.0773 13.9648 13.9648 11.0773 13.9648 7.51953C13.9648 3.96172 11.0773 1.07422 7.51953 1.07422ZM8.80859 8.80859H6.23047V6.23047H8.80859V8.80859Z" fill="#7A6226"/>
<path d="M6.66016 2.36328H8.37891V4.08203H6.66016V2.36328ZM6.66016 10.957H8.37891V12.6758H6.66016V10.957ZM2.36328 6.66016H4.08203V8.37891H2.36328V6.66016ZM10.957 6.66016H12.6758V8.37891H10.957V6.66016Z" fill="url(#paint2_linear_1_32416)"/>
<path d="M5.37109 5.37109V9.66797H9.66797V5.37109H5.37109ZM8.80859 8.80859H6.23047V6.23047H8.80859V8.80859Z" fill="#DBBD80"/>
</g>
<defs>
<linearGradient id="paint0_linear_1_32416" x1="14.4807" y1="10.2266" x2="14.4807" y2="18.7342" gradientUnits="userSpaceOnUse">
<stop stop-color="#FFF7D8"/>
<stop offset="1" stop-color="#AF8440"/>
</linearGradient>
<linearGradient id="paint1_linear_1_32416" x1="11.8458" y1="8.03418" x2="11.8458" y2="15.6578" gradientUnits="userSpaceOnUse">
<stop stop-color="#FFF7D8"/>
<stop offset="1" stop-color="#AF8440"/>
</linearGradient>
<linearGradient id="paint2_linear_1_32416" x1="7.51953" y1="2.36328" x2="7.51953" y2="12.6758" gradientUnits="userSpaceOnUse">
<stop stop-color="#FFF7D8"/>
<stop offset="1" stop-color="#AF8440"/>
</linearGradient>
<clipPath id="clip0_1_32416">
<rect width="22" height="22" fill="white"/>
</clipPath>
</defs>
</svg>
