<svg width="26" height="26" viewBox="0 0 26 26" fill="none" xmlns="http://www.w3.org/2000/svg">
<path d="M18.785 5.91502C18.5279 5.91502 18.2765 5.99126 18.0628 6.13411C17.849 6.27696 17.6824 6.47999 17.584 6.71753C17.4856 6.95508 17.4598 7.21646 17.51 7.46864C17.5601 7.72081 17.684 7.95245 17.8658 8.13426C18.0476 8.31607 18.2792 8.43988 18.5314 8.49004C18.7836 8.5402 19.0449 8.51446 19.2825 8.41606C19.52 8.31767 19.7231 8.15105 19.8659 7.93726C20.0088 7.72348 20.085 7.47214 20.085 7.21502C20.085 6.87024 19.948 6.53958 19.7042 6.29578C19.4604 6.05198 19.1298 5.91502 18.785 5.91502ZM23.7683 8.53669C23.7473 7.63784 23.5789 6.74854 23.27 5.90419C22.9945 5.18175 22.5658 4.52757 22.0133 3.98669C21.4769 3.4314 20.8212 3.00538 20.0958 2.74085C19.2537 2.42253 18.3634 2.25033 17.4633 2.23169C16.315 2.16669 15.9467 2.16669 13 2.16669C10.0533 2.16669 9.685 2.16669 8.53667 2.23169C7.63658 2.25033 6.74629 2.42253 5.90417 2.74085C5.18015 3.00806 4.52501 3.43371 3.98667 3.98669C3.43138 4.52313 3.00536 5.17883 2.74083 5.90419C2.42251 6.74631 2.25031 7.6366 2.23167 8.53669C2.16667 9.68502 2.16667 10.0534 2.16667 13C2.16667 15.9467 2.16667 16.315 2.23167 17.4634C2.25031 18.3634 2.42251 19.2537 2.74083 20.0959C3.00536 20.8212 3.43138 21.4769 3.98667 22.0134C4.52501 22.5663 5.18015 22.992 5.90417 23.2592C6.74629 23.5775 7.63658 23.7497 8.53667 23.7684C9.685 23.8334 10.0533 23.8334 13 23.8334C15.9467 23.8334 16.315 23.8334 17.4633 23.7684C18.3634 23.7497 19.2537 23.5775 20.0958 23.2592C20.8212 22.9947 21.4769 22.5686 22.0133 22.0134C22.5683 21.4745 22.9974 20.8197 23.27 20.0959C23.5789 19.2515 23.7473 18.3622 23.7683 17.4634C23.7683 16.315 23.8333 15.9467 23.8333 13C23.8333 10.0534 23.8333 9.68502 23.7683 8.53669ZM21.8183 17.3334C21.8104 18.021 21.6859 18.7024 21.45 19.3484C21.277 19.8198 20.9992 20.2458 20.6375 20.5942C20.2861 20.9522 19.861 21.2295 19.3917 21.4067C18.7457 21.6426 18.0643 21.7671 17.3767 21.775C16.2933 21.8292 15.8925 21.84 13.0433 21.84C10.1942 21.84 9.79333 21.84 8.71 21.775C7.99597 21.7884 7.28498 21.6784 6.60833 21.45C6.1596 21.2638 5.75397 20.9872 5.41667 20.6375C5.0571 20.2895 4.78275 19.8631 4.615 19.3917C4.35051 18.7364 4.20381 18.0396 4.18167 17.3334C4.18167 16.25 4.11667 15.8492 4.11667 13C4.11667 10.1509 4.11667 9.75002 4.18167 8.66669C4.18652 7.96366 4.31486 7.26696 4.56083 6.60835C4.75155 6.15109 5.04429 5.74348 5.41667 5.41669C5.7458 5.0442 6.15256 4.74837 6.60833 4.55002C7.26868 4.31173 7.96466 4.18719 8.66667 4.18169C9.75 4.18169 10.1508 4.11669 13 4.11669C15.8492 4.11669 16.25 4.11669 17.3333 4.18169C18.021 4.18957 18.7023 4.31412 19.3483 4.55002C19.8406 4.73273 20.2825 5.02977 20.6375 5.41669C20.9925 5.74946 21.2699 6.15631 21.45 6.60835C21.6908 7.26803 21.8154 7.96445 21.8183 8.66669C21.8725 9.75002 21.8833 10.1509 21.8833 13C21.8833 15.8492 21.8725 16.25 21.8183 17.3334ZM13 7.44252C11.9013 7.44466 10.8279 7.77242 9.91538 8.38439C9.00288 8.99636 8.29224 9.86507 7.87327 10.8808C7.4543 11.8964 7.34579 13.0135 7.56144 14.0909C7.7771 15.1682 8.30726 16.1574 9.08492 16.9336C9.86258 17.7097 10.8528 18.238 11.9306 18.4515C13.0084 18.6651 14.1252 18.5544 15.1401 18.1334C16.155 17.7125 17.0223 17.0002 17.6325 16.0865C18.2427 15.1728 18.5683 14.0987 18.5683 13C18.5698 12.2689 18.4266 11.5447 18.1472 10.8691C17.8677 10.1934 17.4574 9.57973 16.9399 9.06324C16.4224 8.54675 15.8079 8.13767 15.1318 7.85953C14.4556 7.58138 13.7311 7.43966 13 7.44252ZM13 16.6075C12.2865 16.6075 11.589 16.3959 10.9958 15.9995C10.4025 15.6031 9.94015 15.0397 9.66711 14.3806C9.39406 13.7214 9.32262 12.996 9.46182 12.2962C9.60101 11.5964 9.94459 10.9536 10.4491 10.4491C10.9536 9.94461 11.5964 9.60103 12.2962 9.46184C12.996 9.32264 13.7213 9.39408 14.3805 9.66712C15.0397 9.94017 15.6031 10.4025 15.9995 10.9958C16.3959 11.5891 16.6075 12.2865 16.6075 13C16.6075 13.4738 16.5142 13.9429 16.3329 14.3806C16.1516 14.8182 15.8859 15.2159 15.5509 15.5509C15.2159 15.8859 14.8182 16.1516 14.3805 16.3329C13.9428 16.5142 13.4737 16.6075 13 16.6075Z" fill="black"/>
</svg>
