<svg width="24" height="22" viewBox="0 0 24 22" fill="none" xmlns="http://www.w3.org/2000/svg">
<g clip-path="url(#clip0_4_18)">
<path d="M7 5.50002C7.26522 5.50002 7.51957 5.40344 7.70711 5.23153C7.89464 5.05963 8 4.82647 8 4.58335C8 4.34024 7.89464 4.10708 7.70711 3.93517C7.51957 3.76326 7.26522 3.66669 7 3.66669H5C4.73478 3.66669 4.48043 3.76326 4.29289 3.93517C4.10536 4.10708 4 4.34024 4 4.58335V17.4167C4 17.6598 4.10536 17.893 4.29289 18.0649C4.48043 18.2368 4.73478 18.3334 5 18.3334H7C7.26522 18.3334 7.51957 18.2368 7.70711 18.0649C7.89464 17.893 8 17.6598 8 17.4167C8 17.1736 7.89464 16.9404 7.70711 16.7685C7.51957 16.5966 7.26522 16.5 7 16.5H6V5.50002H7Z" fill="white" fill-opacity="0.71"/>
<path d="M20.82 10.4683L18 6.80164C17.8471 6.60402 17.615 6.46994 17.3545 6.42871C17.0941 6.38749 16.8264 6.44247 16.61 6.58164C16.5018 6.65111 16.4098 6.73953 16.3391 6.8418C16.2684 6.94406 16.2206 7.05814 16.1982 7.17746C16.1759 7.29678 16.1796 7.41896 16.2091 7.53697C16.2386 7.65497 16.2933 7.76645 16.37 7.86498L18.09 10.0833H10C9.73478 10.0833 9.48043 10.1799 9.29289 10.3518C9.10536 10.5237 9 10.7569 9 11C9 11.2431 9.10536 11.4762 9.29289 11.6482C9.48043 11.8201 9.73478 11.9166 10 11.9166H18L16.2 14.1166C16.1212 14.2129 16.0639 14.3225 16.0313 14.4391C15.9987 14.5558 15.9915 14.6771 16.01 14.7963C16.0286 14.9154 16.0726 15.0301 16.1395 15.1337C16.2064 15.2373 16.2949 15.3277 16.4 15.4C16.5731 15.519 16.7836 15.5833 17 15.5833C17.1552 15.5833 17.3084 15.5502 17.4472 15.4865C17.5861 15.4229 17.7069 15.3305 17.8 15.2166L20.8 11.55C20.9281 11.3949 20.999 11.2066 21.0026 11.0121C21.0062 10.8177 20.9423 10.6272 20.82 10.4683Z" fill="white" fill-opacity="0.71"/>
</g>
<defs>
<clipPath id="clip0_4_18">
<rect width="24" height="22" fill="white"/>
</clipPath>
</defs>
</svg>
