<svg width="24" height="24" viewBox="0 0 24 24" fill="none" xmlns="http://www.w3.org/2000/svg">
<g clip-path="url(#clip0_1_32233)">
<path d="M0.151149 12.7254L4.84275 16.8768C4.88681 16.9158 4.93811 16.9457 4.99374 16.9649C5.04936 16.984 5.10821 16.9921 5.16693 16.9885C5.22564 16.9849 5.28308 16.9697 5.33595 16.9439C5.38881 16.9181 5.43609 16.8821 5.47506 16.8381L6.98359 15.132C7.06229 15.043 7.10243 14.9264 7.09518 14.8078C7.08792 14.6892 7.03386 14.5783 6.94489 14.4995L6.73409 14.313C7.59271 13.8921 8.39826 13.3706 9.13378 12.7594L11.5033 14.8561L11.3444 15.0358C11.2657 15.1249 11.2256 15.2415 11.2328 15.3601C11.2401 15.4787 11.2942 15.5896 11.3831 15.6683L17.8263 21.3696C18.2836 21.7765 18.8746 22.0009 19.4867 22C19.5389 22 19.5912 21.9984 19.6435 21.9952C19.9728 21.9759 20.2951 21.8914 20.5916 21.7467C20.8881 21.602 21.153 21.3999 21.3709 21.1522C21.8114 20.6528 22.036 19.999 21.9953 19.3342C21.9546 18.6694 21.6519 18.0479 21.1537 17.6061L14.7107 11.905C14.6217 11.8263 14.5051 11.7862 14.3866 11.7934C14.268 11.8007 14.1572 11.8548 14.0785 11.9438L13.9195 12.1235L11.55 10.0269C12.0666 9.22201 12.4858 8.35855 12.7986 7.45467L13.0093 7.64113C13.0983 7.71987 13.2149 7.76002 13.3335 7.75276C13.4521 7.74551 13.5629 7.69143 13.6416 7.60243L15.1502 5.89639C15.1892 5.85231 15.2191 5.80098 15.2382 5.74534C15.2574 5.6897 15.2654 5.63083 15.2618 5.57209C15.2582 5.51335 15.2431 5.4559 15.2173 5.40301C15.1915 5.35012 15.1555 5.30284 15.1114 5.26385L10.4197 1.11247C10.3757 1.07348 10.3244 1.04355 10.2687 1.0244C10.2131 1.00525 10.1543 0.99724 10.0956 1.00084C10.0368 1.00444 9.9794 1.01957 9.92653 1.04538C9.87366 1.07118 9.8264 1.10715 9.78742 1.15123L8.27884 2.85727C8.23986 2.90135 8.20995 2.95268 8.1908 3.00832C8.17165 3.06396 8.16365 3.12283 8.16725 3.18157C8.17085 3.24031 8.18598 3.29776 8.21177 3.35065C8.23757 3.40353 8.27352 3.45082 8.31759 3.48981L8.5822 3.72399C7.1705 4.41252 5.9083 5.37263 4.86775 6.54943C3.8272 7.72623 3.0287 9.09665 2.51792 10.5823L2.25324 10.3482C2.16427 10.2694 2.04767 10.2293 1.9291 10.2365C1.81053 10.2438 1.6997 10.2979 1.62099 10.3869L0.112403 12.093C0.0337036 12.182 -0.00642673 12.2986 0.000839491 12.4172C0.00810571 12.5358 0.0621734 12.6467 0.151149 12.7254ZM20.7001 20.5586C20.5596 20.7176 20.3891 20.8473 20.1985 20.9404C20.0078 21.0335 19.8007 21.0881 19.589 21.1011C19.3772 21.1141 19.165 21.0852 18.9644 21.0162C18.7638 20.9471 18.5788 20.8392 18.4199 20.6986L13.7726 16.5863L15.9131 14.1655L20.5604 18.2778C20.8808 18.562 21.0754 18.9618 21.1016 19.3893C21.1278 19.8169 20.9834 20.2374 20.7001 20.5586ZM14.4527 12.8732L15.2418 13.5715L13.1013 15.9922L12.3119 15.2939L14.4527 12.8732ZM13.3259 12.7948L12.0969 14.1848L9.80595 12.1577C10.0287 11.9424 10.2429 11.719 10.4486 11.4875C10.6535 11.2558 10.849 11.0158 11.035 10.7676L13.3259 12.7948ZM10.1617 2.08062L14.1823 5.63823L13.2673 6.67304L9.24666 3.11543L10.1617 2.08062ZM5.53883 7.14319C6.58639 5.96193 7.87305 5.01697 9.31345 4.37098L12.0673 6.80746C11.6043 8.31742 10.8236 9.71073 9.77759 10.8937C8.73157 12.0767 7.4445 13.022 6.00289 13.666L3.24911 11.2295C3.71416 9.72046 4.49466 8.32755 5.53883 7.14319ZM1.99523 11.316L6.01583 14.8737L5.10081 15.9084L1.08022 12.3508L1.99523 11.316Z" fill="black" stroke="black" stroke-width="0.5"/>
</g>
<defs>
<clipPath id="clip0_1_32233">
<rect width="24" height="24" fill="white"/>
</clipPath>
</defs>
</svg>
