<svg width="24" height="24" viewBox="0 0 24 24" fill="none" xmlns="http://www.w3.org/2000/svg">
<g clip-path="url(#clip0_1_32245)">
<path d="M11 11C11.7911 11 12.5645 10.7654 13.2223 10.3259C13.8801 9.88635 14.3928 9.26164 14.6955 8.53074C14.9983 7.79983 15.0775 6.99556 14.9231 6.21964C14.7688 5.44372 14.3878 4.73098 13.8284 4.17157C13.269 3.61216 12.5563 3.2312 11.7804 3.07686C11.0044 2.92252 10.2002 3.00173 9.46927 3.30448C8.73836 3.60723 8.11365 4.11992 7.67412 4.77772C7.2346 5.43552 7 6.20888 7 7C7 8.06087 7.42143 9.07828 8.17157 9.82843C8.92172 10.5786 9.93913 11 11 11ZM11 5C11.3956 5 11.7822 5.1173 12.1111 5.33706C12.44 5.55683 12.6964 5.86918 12.8478 6.23463C12.9991 6.60009 13.0387 7.00222 12.9616 7.39018C12.8844 7.77814 12.6939 8.13451 12.4142 8.41422C12.1345 8.69392 11.7781 8.8844 11.3902 8.96157C11.0022 9.03874 10.6001 8.99914 10.2346 8.84776C9.86918 8.69639 9.55682 8.44004 9.33706 8.11114C9.1173 7.78224 9 7.39556 9 7C9 6.46957 9.21071 5.96086 9.58579 5.58579C9.96086 5.21072 10.4696 5 11 5Z" fill="black"/>
<path d="M11 13C9.14348 13 7.36301 13.7375 6.05025 15.0503C4.7375 16.363 4 18.1435 4 20C4 20.2652 4.10536 20.5196 4.29289 20.7071C4.48043 20.8946 4.73478 21 5 21C5.26522 21 5.51957 20.8946 5.70711 20.7071C5.89464 20.5196 6 20.2652 6 20C6 18.6739 6.52678 17.4021 7.46447 16.4645C8.40215 15.5268 9.67392 15 11 15C12.3261 15 13.5979 15.5268 14.5355 16.4645C15.4732 17.4021 16 18.6739 16 20C16 20.2652 16.1054 20.5196 16.2929 20.7071C16.4804 20.8946 16.7348 21 17 21C17.2652 21 17.5196 20.8946 17.7071 20.7071C17.8946 20.5196 18 20.2652 18 20C18 18.1435 17.2625 16.363 15.9497 15.0503C14.637 13.7375 12.8565 13 11 13Z" fill="black"/>
</g>
<defs>
<clipPath id="clip0_1_32245">
<rect width="24" height="24" fill="white"/>
</clipPath>
</defs>
</svg>
