<svg width="26" height="26" viewBox="0 0 26 26" fill="none" xmlns="http://www.w3.org/2000/svg">
<path d="M24.7097 17.8003C21.4516 17.2673 19.9826 13.9441 19.9225 13.8028L19.9095 13.7751C19.7421 13.4388 19.7047 13.1625 19.7941 12.9512C19.9712 12.5352 20.6537 12.3207 21.1055 12.1777C21.2355 12.1371 21.359 12.0981 21.4614 12.0575C21.9066 11.8836 22.2235 11.6935 22.4331 11.479C22.6834 11.2223 22.7321 10.9785 22.7289 10.8176C22.7207 10.4293 22.4217 10.0848 21.9456 9.91575C21.7773 9.84809 21.5973 9.81387 21.4159 9.815C21.2461 9.81327 21.0778 9.84703 20.9219 9.91412C20.6048 10.0739 20.26 10.1716 19.9062 10.2017C19.7905 10.1986 19.6764 10.1738 19.5699 10.1286L19.5991 9.659L19.604 9.58913C19.708 7.94625 19.838 5.90362 19.2936 4.68975C18.9412 3.88991 18.4343 3.16758 17.8019 2.56425C17.279 2.07432 16.6754 1.67849 16.0176 1.39425C15.1382 1.01544 14.1915 0.817591 13.234 0.8125H13.1739L12.7546 0.817375C12.2135 0.817375 11.1312 0.89375 9.96775 1.40237C9.31223 1.68713 8.71081 2.08294 8.19 2.57237C7.5606 3.17435 7.05592 3.89439 6.70475 4.69138C6.16037 5.90363 6.29037 7.94625 6.39437 9.5875V9.59075L6.42687 10.1286C6.3004 10.1815 6.16416 10.207 6.02712 10.2034C5.72 10.2034 5.35437 10.1059 4.94162 9.91412C4.81192 9.85596 4.67099 9.82711 4.52887 9.82962C4.27208 9.83232 4.02049 9.90236 3.79925 10.0327C3.51487 10.1969 3.33287 10.4293 3.2825 10.6876C3.25 10.8599 3.25162 11.1979 3.63025 11.5391C3.83825 11.7276 4.14375 11.9031 4.537 12.0575C4.641 12.0981 4.76287 12.1371 4.89287 12.1777C5.34462 12.3191 6.02875 12.5352 6.20587 12.9512C6.29687 13.1625 6.25787 13.4388 6.0905 13.7751L6.07912 13.8028C5.76122 14.4874 5.34818 15.1236 4.85225 15.6926C4.42341 16.1955 3.92427 16.6339 3.37025 16.9943C2.73939 17.4024 2.03144 17.6768 1.29025 17.8003C1.15166 17.8225 1.0262 17.8952 0.938003 18.0044C0.849807 18.1136 0.805105 18.2516 0.812496 18.3917C0.817835 18.4768 0.837618 18.5603 0.870996 18.6388L0.872621 18.6404C0.989621 18.9101 1.25937 19.1409 1.69812 19.3424C2.23437 19.5894 3.03712 19.7974 4.082 19.9599C4.13562 20.059 4.18925 20.3109 4.22825 20.4815C4.26725 20.6635 4.3095 20.852 4.368 21.0503C4.43137 21.2664 4.59712 21.5231 5.02125 21.5231C5.21012 21.5143 5.39778 21.4882 5.58187 21.4451C5.8955 21.3834 6.3245 21.3005 6.86075 21.3005C7.15812 21.3005 7.46525 21.3265 7.77562 21.3769C8.37362 21.476 8.88712 21.8367 9.4835 22.2544C10.3545 22.8702 11.3425 23.5625 12.8505 23.5625C12.8917 23.5625 12.9329 23.5609 12.974 23.5576C13.0227 23.5609 13.0845 23.5625 13.1495 23.5625C14.6575 23.5625 15.6455 22.8702 16.5165 22.2576L16.5181 22.256C17.1145 21.8384 17.628 21.4776 18.226 21.3785C18.5364 21.3281 18.8435 21.3021 19.1409 21.3021C19.6527 21.3021 20.0574 21.3671 20.4197 21.437C20.6554 21.4825 20.839 21.5053 20.9804 21.5053H21.008C21.1499 21.5118 21.2897 21.4691 21.4037 21.3844C21.5177 21.2997 21.5989 21.1782 21.6336 21.0405C21.6921 20.8455 21.7327 20.6619 21.7734 20.4766C21.8091 20.3157 21.866 20.0574 21.918 19.9566C22.9645 19.7941 23.7656 19.5861 24.3019 19.3391C24.739 19.1376 25.0087 18.9085 25.1257 18.6388C25.1608 18.5597 25.1811 18.4749 25.1859 18.3885C25.1932 18.2489 25.1486 18.1116 25.0607 18.003C24.9728 17.8944 24.8478 17.8221 24.7097 17.8003Z" stroke="black" stroke-width="1.5" stroke-miterlimit="10"/>
</svg>
