<svg width="24" height="24" viewBox="0 0 24 24" fill="none" xmlns="http://www.w3.org/2000/svg">
<g clip-path="url(#clip0_4_5712)">
<path d="M12 2C9.29992 2.05257 6.73088 3.17378 4.85627 5.11775C2.98165 7.06173 1.95448 9.66979 2 12.37V17C2 17.7911 2.2346 18.5645 2.67412 19.2223C3.11365 19.8801 3.73836 20.3928 4.46927 20.6955C5.20017 20.9983 6.00444 21.0775 6.78036 20.9231C7.55629 20.7688 8.26902 20.3878 8.82843 19.8284C9.38784 19.269 9.7688 18.5563 9.92314 17.7804C10.0775 17.0044 9.99827 16.2002 9.69552 15.4693C9.39277 14.7384 8.88008 14.1136 8.22228 13.6741C7.56449 13.2346 6.79113 13 6 13C5.29504 13.003 4.60399 13.1964 4 13.56V12.37C3.95437 10.2002 4.7708 8.10075 6.27037 6.53183C7.76994 4.96291 9.83033 4.05245 12 4C14.1697 4.05245 16.2301 4.96291 17.7296 6.53183C19.2292 8.10075 20.0456 10.2002 20 12.37V13.56C19.396 13.1964 18.705 13.003 18 13C17.2089 13 16.4355 13.2346 15.7777 13.6741C15.1199 14.1136 14.6072 14.7384 14.3045 15.4693C14.0017 16.2002 13.9225 17.0044 14.0769 17.7804C14.2312 18.5563 14.6122 19.269 15.1716 19.8284C15.731 20.3878 16.4437 20.7688 17.2196 20.9231C17.9956 21.0775 18.7998 20.9983 19.5307 20.6955C20.2616 20.3928 20.8864 19.8801 21.3259 19.2223C21.7654 18.5645 22 17.7911 22 17V12.37C22.0455 9.66979 21.0184 7.06173 19.1437 5.11775C17.2691 3.17378 14.7001 2.05257 12 2ZM6 15C6.39556 15 6.78224 15.1173 7.11114 15.3371C7.44004 15.5568 7.69639 15.8692 7.84776 16.2346C7.99914 16.6001 8.03874 17.0022 7.96157 17.3902C7.8844 17.7781 7.69392 18.1345 7.41422 18.4142C7.13451 18.6939 6.77814 18.8844 6.39018 18.9616C6.00222 19.0387 5.60009 18.9991 5.23463 18.8478C4.86918 18.6964 4.55683 18.44 4.33706 18.1111C4.1173 17.7822 4 17.3956 4 17C4 16.4696 4.21072 15.9609 4.58579 15.5858C4.96086 15.2107 5.46957 15 6 15ZM18 19C17.6044 19 17.2178 18.8827 16.8889 18.6629C16.56 18.4432 16.3036 18.1308 16.1522 17.7654C16.0009 17.3999 15.9613 16.9978 16.0384 16.6098C16.1156 16.2219 16.3061 15.8655 16.5858 15.5858C16.8655 15.3061 17.2219 15.1156 17.6098 15.0384C17.9978 14.9613 18.3999 15.0009 18.7654 15.1522C19.1308 15.3036 19.4432 15.56 19.6629 15.8889C19.8827 16.2178 20 16.6044 20 17C20 17.5304 19.7893 18.0391 19.4142 18.4142C19.0391 18.7893 18.5304 19 18 19Z" fill="white" fill-opacity="0.71"/>
</g>
<defs>
<clipPath id="clip0_4_5712">
<rect width="24" height="24" fill="white"/>
</clipPath>
</defs>
</svg>
