<svg width="26" height="26" viewBox="0 0 26 26" fill="none" xmlns="http://www.w3.org/2000/svg">
<g clip-path="url(#clip0_4_5702)">
<path d="M8.9375 13.698L18.0697 21.7343C18.1754 21.8273 18.3034 21.8912 18.4412 21.9199C18.579 21.9485 18.7219 21.9408 18.8558 21.8977C18.9898 21.8545 19.1102 21.7772 19.2054 21.6735C19.3005 21.5697 19.367 21.443 19.3985 21.3059L23.2186 4.63614C23.2516 4.49202 23.2447 4.34161 23.1986 4.20113C23.1524 4.06065 23.0688 3.93542 22.9568 3.83894C22.8447 3.74246 22.7085 3.67839 22.5627 3.65363C22.4169 3.62886 22.2672 3.64435 22.1295 3.69842L3.38548 11.0622C3.22212 11.1263 3.08393 11.2417 2.9916 11.3909C2.89926 11.5402 2.85774 11.7153 2.87325 11.8902C2.88876 12.065 2.96046 12.2301 3.07762 12.3608C3.19479 12.4915 3.35112 12.5807 3.52323 12.6151L8.9375 13.698Z" stroke="black" stroke-width="1.5" stroke-linecap="round" stroke-linejoin="round"/>
<path d="M8.9375 13.6979L22.7614 3.71405" stroke="black" stroke-width="1.5" stroke-linecap="round" stroke-linejoin="round"/>
<path d="M13.4984 17.7116L10.3245 20.8854C10.2109 20.999 10.0661 21.0764 9.90851 21.1078C9.7509 21.1391 9.58754 21.123 9.43907 21.0615C9.29061 21 9.16371 20.8959 9.07443 20.7623C8.98515 20.6287 8.9375 20.4716 8.9375 20.3109V13.698" stroke="black" stroke-width="1.5" stroke-linecap="round" stroke-linejoin="round"/>
</g>
<defs>
<clipPath id="clip0_4_5702">
<rect width="26" height="26" fill="white"/>
</clipPath>
</defs>
</svg>
