<svg width="20" height="20" viewBox="0 0 20 20" fill="none" xmlns="http://www.w3.org/2000/svg">
<path d="M2.09511 12.3576L1.98884 12H1.61583H0.5V8H1.61583H1.98961L2.09539 7.64151C3.1234 4.15773 6.32965 1.75 10 1.75C13.6703 1.75 16.8766 4.15773 17.9046 7.64151L18.0104 8H18.3842H19.5V12H18.3842H18.0112L17.9049 12.3576C17.3987 14.0606 16.3556 15.5545 14.9311 16.6164C13.5066 17.6783 11.7771 18.2513 10.0004 18.25H9.99964C8.22291 18.2513 6.49336 17.6783 5.06888 16.6164C3.6444 15.5545 2.6013 14.0606 2.09511 12.3576Z" fill="#7A6226" stroke="url(#paint0_linear_1_32432)"/>
<path d="M14.0752 11.6667H5.92518C5.8559 11.6683 5.78809 11.687 5.72775 11.7211C5.66741 11.7552 5.6164 11.8036 5.57924 11.8621C5.54209 11.9206 5.51992 11.9874 5.5147 12.0565C5.50949 12.1256 5.52139 12.1949 5.54935 12.2583C6.26435 13.7875 7.97518 15 10.0002 15C10.9217 15.0037 11.8261 14.7503 12.6116 14.2683C13.3971 13.7864 14.0326 13.0949 14.4468 12.2717C14.5993 11.9692 14.3577 11.6667 14.0752 11.6667ZM10.0002 14.1667C8.66685 14.1667 7.45185 13.5392 6.67935 12.5H13.3218C12.9373 13.0185 12.4364 13.4394 11.8595 13.7289C11.2825 14.0184 10.6457 14.1683 10.0002 14.1667ZM5.92518 8.33334H14.0743C14.1441 8.33296 14.2127 8.31506 14.2737 8.2813C14.3348 8.24753 14.3864 8.19898 14.4238 8.14009C14.4612 8.0812 14.4832 8.01387 14.4878 7.94425C14.4924 7.87464 14.4795 7.80499 14.4502 7.74167C13.736 6.21251 12.0252 5.00001 10.0002 5.00001C9.07861 4.99636 8.17428 5.24975 7.38878 5.73171C6.60328 6.21366 5.96773 6.9051 5.55351 7.72834C5.52276 7.79201 5.50851 7.86239 5.51207 7.93301C5.51564 8.00363 5.5369 8.07222 5.57392 8.13247C5.61093 8.19272 5.6625 8.24269 5.72388 8.27779C5.78526 8.31289 5.85448 8.332 5.92518 8.33334ZM10.0002 5.83334C11.3335 5.83334 12.5485 6.46084 13.321 7.50001H6.67935C7.06365 6.98152 7.56439 6.56056 8.14121 6.27106C8.71803 5.98157 9.35479 5.83163 10.0002 5.83334Z" fill="#DCBE81"/>
<circle cx="3.57146" cy="10.2381" r="1.19048" fill="#DDBF83"/>
<circle cx="16.4286" cy="10.2381" r="1.19048" fill="#DDBF83"/>
<defs>
<linearGradient id="paint0_linear_1_32432" x1="10" y1="1.25" x2="10" y2="18.75" gradientUnits="userSpaceOnUse">
<stop stop-color="#DDBF82"/>
<stop offset="1" stop-color="#DCBE81"/>
</linearGradient>
</defs>
</svg>
