<svg width="23" height="23" viewBox="0 0 23 23" fill="none" xmlns="http://www.w3.org/2000/svg">
<path d="M14.3924 5.55384L11.6589 20.2423L21.0887 7.89593L14.3924 5.55384ZM14.6132 5.94768H7.47291L0.952148 7.72215L10.1962 20.2423L10.7626 20.9585L14.6132 5.94768ZM14.4445 5.66447L12.1787 0.849679L5.6646 0.283234L3.96526 0.816051L0.952148 7.08057L14.4445 5.66447ZM14.6132 5.66447L21.5251 7.50303L18.1264 0.823595H11.7798L14.6132 5.66447Z" fill="#5B4300" fill-opacity="0.75"/>
<path d="M22.0859 7.82037C22.0859 7.82037 22.0859 7.81282 22.0935 7.81282C22.1011 7.79771 22.1011 7.79015 22.1086 7.77504C22.1086 7.76748 22.1086 7.75993 22.1162 7.75993C22.1162 7.75237 22.1237 7.73726 22.1237 7.7297V7.60125C22.1237 7.5937 22.1162 7.57858 22.1162 7.57103C22.1162 7.56347 22.1162 7.56347 22.1086 7.55592V7.54836C22.1011 7.53325 22.1011 7.51814 22.0935 7.51058L18.5876 0.340016V0.324904C18.5876 0.317348 18.58 0.317348 18.58 0.309792C18.5724 0.302237 18.5724 0.29468 18.5649 0.287124C18.5573 0.279569 18.5573 0.272013 18.5498 0.264457C18.5422 0.256901 18.5422 0.249345 18.5347 0.241789L18.5196 0.226678L18.5044 0.211565C18.4969 0.204009 18.4893 0.20401 18.4818 0.196454C18.4742 0.188898 18.4667 0.188897 18.4591 0.181342C18.4515 0.173786 18.444 0.173786 18.4364 0.16623C18.4289 0.158674 18.4213 0.158674 18.4138 0.151118C18.4062 0.151118 18.3987 0.143562 18.3911 0.143562C18.3835 0.143562 18.376 0.136006 18.3684 0.136006C18.3609 0.136006 18.3533 0.12845 18.3458 0.12845C18.3382 0.12845 18.3307 0.120895 18.3231 0.120895H18.2627L11.1223 0.060447L3.98197 0H3.92908C3.92152 0 3.91397 -1.15407e-07 3.90641 0.0075558C3.89885 0.0075558 3.8913 0.00755569 3.88374 0.0151116C3.87619 0.0151116 3.86863 0.0226674 3.86107 0.0226674C3.85352 0.0226674 3.84596 0.0302232 3.83841 0.0302232C3.83085 0.0302232 3.82329 0.0377795 3.81574 0.0453354C3.80818 0.0453354 3.80063 0.0528911 3.79307 0.060447C3.78552 0.0680029 3.77796 0.0680033 3.7704 0.0755592C3.76285 0.0831151 3.75529 0.0831149 3.75529 0.0906708C3.74774 0.0982267 3.74018 0.105782 3.73262 0.105782C3.72507 0.113338 3.71751 0.113339 3.71751 0.120895C3.70996 0.12845 3.7024 0.136006 3.7024 0.143562C3.69484 0.151118 3.69484 0.158674 3.68729 0.158674C3.67973 0.16623 3.67973 0.173786 3.67218 0.181342C3.67218 0.188897 3.66462 0.188898 3.66462 0.196454V0.211565L0.0302238 7.32168C0.0226679 7.33679 0.0151122 7.34435 0.0151122 7.35946V7.36702C0.0151122 7.37458 0.0151117 7.37457 0.0075558 7.38213C0.0075558 7.38969 0 7.4048 0 7.41235V7.54081C0 7.54836 -1.15407e-07 7.56347 0.0075558 7.57103V7.58614C0.0075558 7.60125 0.0151121 7.60881 0.022668 7.62392V7.63148L0.0453354 7.67681C0.0453354 7.68437 0.0528918 7.68437 0.0528918 7.69192C0.0604477 7.69948 0.0604475 7.70703 0.0680034 7.71459L10.6538 22.0935L10.669 22.1086C10.669 22.1162 10.6765 22.1162 10.6765 22.1237L10.6841 22.1313L10.6916 22.1388C10.6992 22.1464 10.7067 22.1539 10.7143 22.1539L10.7218 22.1615L10.7294 22.1691L10.737 22.1766C10.7445 22.1842 10.7521 22.1842 10.7596 22.1917C10.7672 22.1917 10.7672 22.1993 10.7747 22.1993C10.7823 22.1993 10.7823 22.2068 10.7898 22.2068C10.7974 22.2068 10.805 22.2144 10.805 22.2144H10.8201C10.8276 22.2144 10.8352 22.222 10.8427 22.222C10.8503 22.222 10.8503 22.222 10.8579 22.2295H11.0316C11.0392 22.2295 11.0392 22.2295 11.0468 22.222C11.0543 22.222 11.0619 22.2144 11.0694 22.2144C11.0694 22.2144 11.077 22.2144 11.077 22.2068C11.0845 22.2068 11.0845 22.1993 11.0921 22.1993C11.0996 22.1993 11.1072 22.1917 11.1072 22.1917C11.1148 22.1917 11.1148 22.1842 11.1223 22.1842C11.1299 22.1766 11.1374 22.1766 11.145 22.1691L11.1525 22.1615C11.1601 22.1615 11.1601 22.1539 11.1676 22.1539H11.1752C11.1828 22.1464 11.1903 22.1388 11.1979 22.1388L11.2054 22.1313L11.2205 22.1162L11.2281 22.1086L11.2432 22.0935L22.0784 7.90349C22.0859 7.89593 22.0859 7.88838 22.0935 7.88082C22.0935 7.87327 22.1011 7.87326 22.1011 7.86571C22.0708 7.8506 22.0784 7.83549 22.0859 7.82037ZM14.1371 6.20341L10.9183 20.129L7.94127 6.15052L14.1371 6.20341ZM13.9104 5.44782L8.18306 5.39492L9.35423 3.67973L11.0921 1.12583L11.4397 1.65475L13.9104 5.44782ZM7.4728 5.08513L4.64689 0.763147L10.3743 0.816039L7.4728 5.08513ZM3.98197 1.13339L4.73 2.28189L6.85322 5.53093L1.02005 6.92878L3.98197 1.13339ZM15.2252 5.59893L17.6506 2.02499L18.172 1.25428L21.0357 7.10256L15.2252 5.59893ZM14.6736 5.06246L14.6131 5.14558L14.2656 4.61666L11.7797 0.823595L17.5071 0.876486L14.6736 5.06246ZM0.952046 7.72215L4.68467 6.82299L7.17812 6.22608L10.1627 20.2347L0.952046 7.72215ZM11.6588 20.2423L14.1598 9.43734L14.8852 6.28652L15.7616 6.5132L21.0886 7.89593L11.6588 20.2423Z" fill="url(#paint0_linear_1_32410)"/>
<defs>
<linearGradient id="paint0_linear_1_32410" x1="11.0619" y1="0" x2="11.0619" y2="22.2295" gradientUnits="userSpaceOnUse">
<stop stop-color="#DABC7F"/>
<stop offset="1" stop-color="#D9BA7D"/>
</linearGradient>
</defs>
</svg>
