<svg width="26" height="26" viewBox="0 0 26 26" fill="none" xmlns="http://www.w3.org/2000/svg">
<path d="M17.9833 15.1667C17.7667 15.0583 16.3583 14.4083 16.1417 14.3C15.925 14.1917 15.7083 14.1917 15.4917 14.4083C15.275 14.625 14.8417 15.275 14.625 15.4917C14.5167 15.7083 14.3 15.7083 14.0833 15.6C13.325 15.275 12.5667 14.8417 11.9167 14.3C11.375 13.7583 10.8333 13.1083 10.4 12.4583C10.2917 12.2417 10.4 12.025 10.5083 11.9167C10.6167 11.8083 10.725 11.5917 10.9417 11.4833C11.05 11.375 11.1583 11.1583 11.1583 11.05C11.2667 10.9417 11.2667 10.725 11.1583 10.6167C11.05 10.5083 10.5083 9.20834 10.2917 8.66667C10.1833 7.90834 9.96667 7.90834 9.75 7.90834H9.20833C8.99167 7.90834 8.66667 8.125 8.55833 8.23334C7.90833 8.88334 7.58333 9.64167 7.58333 10.5083C7.69167 11.4833 8.01667 12.4583 8.66667 13.325C9.85834 15.0583 11.375 16.4667 13.2167 17.3333C13.7583 17.55 14.1917 17.7667 14.7333 17.875C15.275 18.0917 15.8167 18.0917 16.4667 17.9833C17.225 17.875 17.875 17.3333 18.3083 16.6833C18.525 16.25 18.525 15.8167 18.4167 15.3833L17.9833 15.1667ZM20.6917 5.30834C16.4667 1.08334 9.64167 1.08334 5.41667 5.30834C1.95 8.775 1.3 14.0833 3.68333 18.3083L2.16667 23.8333L7.90834 22.3167C9.53334 23.1833 11.2667 23.6167 13 23.6167C18.9583 23.6167 23.725 18.85 23.725 12.8917C23.8333 10.075 22.6417 7.36667 20.6917 5.30834ZM17.7667 20.475C16.3583 21.3417 14.7333 21.8833 13 21.8833C11.375 21.8833 9.85834 21.45 8.45 20.6917L8.125 20.475L4.76667 21.3417L5.63333 18.0917L5.41667 17.7667C2.81667 13.4333 4.11667 8.01667 8.34167 5.30834C12.5667 2.6 17.9833 4.00834 20.5833 8.125C23.1833 12.35 21.9917 17.875 17.7667 20.475Z" fill="black"/>
</svg>
